<?xml version="1.0" encoding="UTF-8"?>
<svg width="120" height="24" viewBox="0 0 120 24" fill="none" xmlns="http://www.w3.org/2000/svg">
  <path d="M9.6 4.8H0V18.48H9.6C13.824 18.48 16.56 15.504 16.56 11.64C16.56 7.68 13.824 4.8 9.6 4.8ZM9.408 15.12H4.08V8.16H9.408C11.52 8.16 12.72 9.552 12.72 11.64C12.72 13.728 11.52 15.12 9.408 15.12Z" fill="white"/>
  <path d="M25.6371 18.672C29.0131 18.672 31.3411 16.488 31.3411 13.104C31.3411 9.72 29.0131 7.536 25.6371 7.536C22.2611 7.536 19.9091 9.72 19.9091 13.104C19.9091 16.488 22.2611 18.672 25.6371 18.672ZM25.6371 15.336C24.3691 15.336 23.4611 14.4 23.4611 13.104C23.4611 11.808 24.3691 10.872 25.6371 10.872C26.9051 10.872 27.7891 11.808 27.7891 13.104C27.7891 14.4 26.9051 15.336 25.6371 15.336Z" fill="white"/>
  <path d="M39.1665 18.672C41.3986 18.672 43.1505 17.544 43.7425 15.72H43.8466V18.48H47.2945V7.728H43.8466V10.488H43.7425C43.1505 8.664 41.3986 7.536 39.1665 7.536C36.0266 7.536 33.7706 9.696 33.7706 13.104C33.7706 16.512 36.0266 18.672 39.1665 18.672ZM40.2785 15.312C38.9865 15.312 38.0305 14.376 38.0305 13.104C38.0305 11.832 38.9865 10.896 40.2785 10.896C41.5705 10.896 42.5266 11.832 42.5266 13.104C42.5266 14.376 41.5705 15.312 40.2785 15.312Z" fill="white"/>
  <path d="M55.1756 18.672C58.5516 18.672 60.8796 16.488 60.8796 13.104C60.8796 9.72 58.5516 7.536 55.1756 7.536C51.7996 7.536 49.4476 9.72 49.4476 13.104C49.4476 16.488 51.7996 18.672 55.1756 18.672ZM55.1756 15.336C53.9076 15.336 52.9996 14.4 52.9996 13.104C52.9996 11.808 53.9076 10.872 55.1756 10.872C56.4436 10.872 57.3276 11.808 57.3276 13.104C57.3276 14.4 56.4436 15.336 55.1756 15.336Z" fill="white"/>
  <path d="M64.189 18.48H67.637V12.84C67.637 11.544 68.545 10.728 69.885 10.728C71.225 10.728 71.989 11.544 71.989 12.84V18.48H75.461V12.24C75.461 9.216 73.837 7.536 71.273 7.536C69.333 7.536 68.065 8.472 67.517 10.032H67.421V7.728H64.189V18.48Z" fill="white"/>
  <path d="M82.8673 18.672C85.1233 18.672 86.8993 17.424 87.4673 15.36H87.5473V18.48H90.9953V1.68H87.5473V10.8H87.4673C86.8753 8.736 85.0993 7.536 82.8673 7.536C79.7273 7.536 77.4473 9.696 77.4473 13.104C77.4473 16.512 79.7273 18.672 82.8673 18.672ZM83.9793 15.312C82.6873 15.312 81.7073 14.376 81.7073 13.104C81.7073 11.832 82.6873 10.896 83.9793 10.896C85.2713 10.896 86.2273 11.832 86.2273 13.104C86.2273 14.376 85.2713 15.312 83.9793 15.312Z" fill="white"/>
  <path d="M95.7371 4.8C97.0291 4.8 98.0091 3.792 98.0091 2.4C98.0091 1.008 97.0291 0 95.7371 0C94.4451 0 93.4651 1.008 93.4651 2.4C93.4651 3.792 94.4451 4.8 95.7371 4.8ZM93.9531 18.48H97.5211V7.728H93.9531V18.48Z" fill="white"/>
  <path d="M103.895 18.48H107.343V12.84C107.343 11.544 108.251 10.728 109.591 10.728C110.931 10.728 111.695 11.544 111.695 12.84V18.48H115.167V12.24C115.167 9.216 113.543 7.536 110.979 7.536C109.039 7.536 107.771 8.472 107.223 10.032H107.127V7.728H103.895V18.48Z" fill="white"/>
  <rect x="17.04" y="4.8" width="2.4" height="13.68" fill="#3EA7C2"/>
  <rect x="77.28" y="4.8" width="2.4" height="13.68" fill="#3EA7C2"/>
</svg>
